M48
; DRILL file {KiCad 7.0.7} date Mon Aug 19 15:32:17 2024
; FORMAT={-:-/ absolute / inch / decimal}
; #@! TF.CreationDate,2024-08-19T15:32:17+08:00
; #@! TF.GenerationSoftware,Kicad,Pcbnew,7.0.7
; #@! TF.FileFunction,Plated,1,2,PTH
FMAT,2
INCH
; #@! TA.AperFunction,Plated,PTH,ViaDrill
T1C0.0118
; #@! TA.AperFunction,Plated,PTH,ViaDrill
T2C0.0157
; #@! TA.AperFunction,Plated,PTH,ComponentDrill
T3C0.0276
; #@! TA.AperFunction,Plated,PTH,ComponentDrill
T4C0.0350
; #@! TA.AperFunction,Plated,PTH,ComponentDrill
T5C0.0354
; #@! TA.AperFunction,Plated,PTH,ComponentDrill
T6C0.0394
; #@! TA.AperFunction,Plated,PTH,ComponentDrill
T7C0.0433
; #@! TA.AperFunction,Plated,PTH,ComponentDrill
T8C0.0551
; #@! TA.AperFunction,Plated,PTH,ComponentDrill
T9C0.0827
%
G90
G05
T1
X3.4724Y-6.6772
X3.5079Y-1.7638
X3.5315Y-7.3661
X3.5496Y-3.8268
X3.5748Y-7.3622
X3.6142Y-7.3622
X3.6181Y-2.5591
X3.6181Y-2.5945
X3.6181Y-2.6299
X3.6181Y-2.6732
X3.6181Y-2.7126
X3.6181Y-2.752
X3.6181Y-2.7953
X3.6378Y-2.3898
X3.6417Y-6.5866
X3.6614Y-2.563
X3.6614Y-2.5984
X3.6614Y-2.6339
X3.6614Y-2.6772
X3.6614Y-2.7165
X3.6614Y-2.7559
X3.6614Y-2.7992
X3.6654Y-7.3661
X3.689Y-2.3898
X3.6969Y-7.3622
X3.7362Y-2.563
X3.7362Y-2.5984
X3.7362Y-2.6339
X3.7362Y-2.6772
X3.7362Y-2.7165
X3.7362Y-2.7559
X3.7362Y-2.7992
X3.7402Y-7.3622
X3.7441Y-2.3898
X3.7453Y-3.8268
X3.7795Y-2.563
X3.7795Y-2.5984
X3.7795Y-2.6339
X3.7795Y-2.6772
X3.7795Y-2.7165
X3.7795Y-2.7559
X3.7795Y-2.7992
X3.7795Y-7.3622
X3.7874Y-2.3898
X3.815Y-2.2441
X3.815Y-2.3307
X3.8189Y-7.3622
X3.8346Y-2.3898
X3.8465Y-5.1614
X3.8543Y-7.3622
X3.8583Y-5.1969
X3.8583Y-5.2362
X3.8898Y-2.2008
X3.8937Y-2.2402
X3.8937Y-2.2795
X3.8937Y-2.3228
X3.8937Y-2.3661
X3.8976Y-5.1969
X3.8976Y-5.2362
X3.9016Y-5.1614
X3.9055Y-5.5551
X3.9409Y-5.1969
X3.9409Y-5.2362
X3.9449Y-6.6614
X3.9472Y-2.1748
X3.9528Y-5.1614
X3.9724Y-5.5551
X4.0472Y-5.5551
X4.1654Y-3.6535
X4.1654Y-3.9606
X4.2598Y-2.1969
X4.2874Y-2.2441
X4.315Y-2.2008
X4.3488Y-6.328
X4.3524Y-1.9661
X4.3937Y-2.185
X4.3976Y-2.3701
X4.4232Y-3.9055
X4.4488Y-2.189
X4.4528Y-2.3819
X4.5118Y-2.2244
X4.5118Y-2.2913
X4.5299Y-6.5075
X4.5709Y-1.7638
X4.6417Y-7.0748
X4.6457Y-6.6929
X4.6654Y-5.0984
X4.6772Y-4.6299
X4.6898Y-3.9587
X4.7362Y-6.6969
X4.752Y-4.626
T2
X5.252Y-1.2047
X5.3701Y-1.0866
T3
X3.5933Y-6.7732
X3.6209Y-4.7693
X3.987Y-6.7732
X4.0146Y-4.7693
X4.0933Y-6.7732
X4.1Y-4.77
X4.487Y-6.7732
X4.4937Y-4.77
T4
X3.4417Y-7.1303
X3.4417Y-7.2543
X3.6404Y-5.45
X3.7644Y-5.45
X4.17Y-5.47
X4.272Y-3.4299
X4.294Y-5.47
X4.396Y-3.4299
X4.6339Y-7.2205
X4.6339Y-7.3445
T5
X2.9234Y-1.18
X2.9234Y-2.08
X2.9234Y-2.28
X2.93Y-5.5
X2.93Y-6.4
X2.93Y-6.6
X2.95Y-3.34
X2.95Y-4.24
X2.95Y-4.44
X3.1386Y-7.14
X3.1386Y-7.24
X3.1486Y-4.98
X3.1486Y-5.08
X3.1523Y-2.8185
X3.1523Y-2.9185
X4.92Y-2.7134
X4.92Y-2.8134
X4.9214Y-7.02
X4.9214Y-7.12
X4.9314Y-4.86
X4.9314Y-4.96
X5.1419Y-3.3217
X5.1419Y-3.5217
X5.1419Y-4.4217
X5.1419Y-5.5017
X5.1419Y-5.7017
X5.1419Y-6.6017
X5.15Y-1.18
X5.15Y-1.38
X5.15Y-2.28
T6
X3.67Y-5.0193
X3.6929Y-7.0091
X3.77Y-5.0193
X3.7929Y-7.0091
X3.87Y-5.0193
X3.8929Y-7.0091
X4.07Y-5.0193
X4.0929Y-7.0091
X4.17Y-5.0193
X4.1929Y-7.0091
X4.27Y-5.0193
X4.2929Y-7.0091
X4.37Y-5.0193
X4.3929Y-7.0091
T7
X3.4888Y-2.5538
X3.4888Y-2.8538
X4.5912Y-2.5538
X4.5912Y-3.1538
T8
X3.84Y-1.2525
X3.99Y-1.2525
X4.14Y-1.2525
X4.29Y-1.2525
T9
X2.9386Y-6.94
X2.9386Y-7.34
X2.9486Y-4.78
X2.9486Y-5.18
X2.9523Y-2.6185
X2.9523Y-3.0185
X5.12Y-2.6134
X5.12Y-3.0134
X5.1214Y-6.92
X5.1214Y-7.32
X5.1314Y-4.76
X5.1314Y-5.16
T0
M30
