M48
; DRILL file {KiCad 7.0.7} date Thu Aug 15 22:25:53 2024
; FORMAT={-:-/ absolute / inch / decimal}
; #@! TF.CreationDate,2024-08-15T22:25:53+08:00
; #@! TF.GenerationSoftware,Kicad,Pcbnew,7.0.7
; #@! TF.FileFunction,Plated,1,2,PTH
FMAT,2
INCH
; #@! TA.AperFunction,Plated,PTH,ViaDrill
T1C0.0118
; #@! TA.AperFunction,Plated,PTH,ViaDrill
T2C0.0157
; #@! TA.AperFunction,Plated,PTH,ComponentDrill
T3C0.0350
; #@! TA.AperFunction,Plated,PTH,ComponentDrill
T4C0.0354
; #@! TA.AperFunction,Plated,PTH,ComponentDrill
T5C0.0472
; #@! TA.AperFunction,Plated,PTH,ComponentDrill
T6C0.0787
; #@! TA.AperFunction,Plated,PTH,ComponentDrill
T7C0.1181
%
G90
G05
T1
X4.1375Y-4.0221
X4.1375Y-4.211
X4.1375Y-5.5339
X4.1375Y-5.7229
X4.1375Y-6.9512
X4.1847Y-6.8567
X4.2038Y-2.9867
X4.2076Y-4.2681
X4.2104Y-5.8281
X4.2296Y-6.3201
X4.232Y-6.9512
X4.2333Y-3.3992
X4.2792Y-3.7386
X4.2792Y-3.9276
X4.2792Y-4.1166
X4.2792Y-5.4394
X4.2792Y-5.6284
X4.2792Y-6.6677
X4.2792Y-6.8567
X4.3134Y-4.9032
X4.3264Y-4.0221
X4.3264Y-4.211
X4.3264Y-5.1559
X4.3264Y-5.5339
X4.3264Y-5.7229
X4.3264Y-6.9512
X4.3422Y-3.8095
X4.3501Y-3.7386
X4.3604Y-4.2681
X4.3632Y-5.8281
X4.3737Y-3.9276
X4.3737Y-4.1166
X4.3932Y-4.8981
X4.4008Y-6.3607
X4.4074Y-3.4479
X4.4209Y-4.0221
X4.4209Y-5.5339
X4.4209Y-5.7229
X4.4209Y-6.9512
X4.4682Y-3.9276
X4.4682Y-4.1166
X4.4682Y-5.4394
X4.4682Y-5.6284
X4.4824Y-4.9131
X4.4865Y-3.4542
X4.4975Y-6.3754
X4.5132Y-4.2681
X4.5154Y-6.9512
X4.516Y-5.8281
X4.5233Y-6.778
X4.5458Y-3.3981
X4.5627Y-5.4394
X4.5627Y-5.6284
X4.6099Y-5.5339
X4.6099Y-5.7229
X4.6232Y-3.0296
X4.6282Y-6.1331
X4.6332Y-4.6681
X4.6572Y-5.6284
X4.6611Y-3.3882
X4.6962Y-4.9452
X4.6963Y-6.4254
X4.702Y-3.5031
X4.7132Y-3.2081
X4.751Y-3.0296
X4.7516Y-5.0378
X4.7516Y-5.274
X4.7989Y-6.4551
X4.8107Y-3.6205
X4.8107Y-5.1559
X4.8107Y-6.5733
X4.8304Y-1.2189
X4.8383Y-1.274
X4.8697Y-3.7386
X4.8697Y-5.0378
X4.8697Y-5.274
X4.8697Y-6.4551
X4.8934Y-1.3449
X4.9288Y-3.6205
X4.9288Y-5.1559
X4.9288Y-6.5733
X4.9564Y-1.3449
X4.9642Y-3.7386
X4.9879Y-1.4079
X4.9879Y-3.5024
X4.9879Y-5.0378
X4.9879Y-6.4551
X5.0154Y-5.1555
X5.0194Y-1.2189
X5.0194Y-1.3449
X5.0194Y-1.4709
X5.0469Y-3.6205
X5.0469Y-6.5733
X5.0508Y-1.2819
X5.0508Y-1.4079
X5.0823Y-1.2189
X5.0823Y-1.3449
X5.0823Y-1.4709
X5.106Y-3.0299
X5.106Y-3.5024
X5.106Y-5.0378
X5.106Y-5.274
X5.106Y-6.4551
X5.106Y-6.6914
X5.1138Y-1.2819
X5.1138Y-1.4079
X5.1138Y-1.5339
X5.1453Y-1.2189
X5.1453Y-1.3449
X5.1453Y-1.4709
X5.1611Y-3.7386
X5.1768Y-1.4079
X5.1768Y-1.5339
X5.189Y-5.1862
X5.2083Y-1.3449
X5.2083Y-1.4709
X5.2241Y-5.274
X5.2241Y-6.6914
X5.2398Y-1.4079
X5.2398Y-1.5339
X5.2713Y-1.3449
X5.2713Y-1.4709
X5.2831Y-2.9118
X5.2831Y-3.6205
X5.2831Y-5.1559
X5.2831Y-6.5733
X5.3028Y-1.4079
X5.3028Y-1.5339
X5.3343Y-1.2189
X5.3343Y-1.3449
X5.3343Y-1.4709
X5.3422Y-2.7937
X5.3422Y-3.0299
X5.3422Y-3.7386
X5.3422Y-5.0378
X5.3422Y-5.274
X5.3422Y-6.6914
X5.3658Y-1.2819
X5.3658Y-1.4079
X5.3973Y-1.2189
X5.3973Y-1.3449
X5.3973Y-1.4709
X5.4012Y-2.9118
X5.4012Y-3.3843
X5.4012Y-3.6205
X5.4012Y-5.1559
X5.4012Y-6.337
X5.4012Y-6.5733
X5.4131Y-5.0378
X5.4288Y-1.2819
X5.4288Y-1.4079
X5.4603Y-1.2189
X5.4603Y-1.3449
X5.4603Y-1.4709
X5.4603Y-2.7937
X5.4603Y-3.0299
X5.4603Y-5.274
X5.4603Y-6.6914
X5.4918Y-1.2819
X5.4918Y-1.4079
X5.4918Y-1.5339
X5.5194Y-2.9118
X5.5233Y-1.2189
X5.5233Y-1.3449
X5.5233Y-1.4709
X5.5548Y-1.2819
X5.5548Y-1.4079
X5.5784Y-2.7937
X5.5784Y-3.0299
X5.5784Y-3.5024
X5.5784Y-5.274
X5.5784Y-6.4551
X5.5784Y-6.6914
X5.5863Y-1.2189
X5.5863Y-1.3449
X5.5863Y-1.4709
X5.6099Y-3.7386
X5.6099Y-5.0378
X5.6178Y-1.2819
X5.6178Y-1.4079
X5.6375Y-2.9118
X5.6375Y-3.3843
X5.6375Y-3.6205
X5.6375Y-5.1559
X5.6375Y-6.337
X5.6375Y-6.5733
X5.6493Y-1.2189
X5.6493Y-1.3449
X5.6493Y-1.4709
X5.6808Y-1.2819
X5.6808Y-1.4079
X5.6965Y-2.7937
X5.6965Y-3.0299
X5.6965Y-3.5024
X5.6965Y-3.7386
X5.6965Y-5.0378
X5.6965Y-5.274
X5.6965Y-6.2189
X5.6965Y-6.4551
X5.6965Y-6.6914
X5.7123Y-1.2189
X5.7123Y-1.3449
X5.7123Y-1.4709
X5.7438Y-1.2819
X5.7438Y-1.4079
X5.7438Y-1.5339
X5.7556Y-6.337
X5.7556Y-6.5733
X5.7753Y-1.2189
X5.7753Y-1.3449
X5.7753Y-1.4709
T2
X4.5517Y-3.2931
X4.6674Y-3.6016
T3
X3.3632Y-1.5041
X3.3632Y-1.6281
X3.6932Y-1.5041
X3.6932Y-1.6281
X4.0698Y-1.5041
X4.0698Y-1.6281
X4.4232Y-2.2991
X4.4232Y-2.4231
X4.7282Y-2.2941
X4.7282Y-2.4181
T4
X3.4982Y-1.8331
X3.4982Y-1.9331
X3.4982Y-2.0331
X3.4982Y-2.2331
X3.4982Y-2.3331
X3.4982Y-2.4331
X3.4982Y-2.5331
X3.4982Y-2.9831
X3.4982Y-3.8831
X3.4982Y-4.0831
X3.4982Y-4.4393
X3.4982Y-5.3393
X3.4982Y-5.5393
X3.4982Y-5.8954
X3.4982Y-6.7954
X3.4982Y-6.9954
X4.0232Y-1.8331
X4.0232Y-1.9331
X4.0232Y-2.0331
X4.0232Y-2.2331
X4.0232Y-2.3331
X4.0232Y-2.4331
X4.0232Y-2.5331
X4.9995Y-2.3231
X5.0995Y-2.3231
X5.1995Y-2.3231
X5.3024Y-3.3905
X5.3024Y-3.4889
X5.3116Y-4.8463
X5.3116Y-4.9447
X5.3117Y-6.3128
X5.3117Y-6.4112
X5.3995Y-2.3231
X5.4995Y-2.3231
X5.5832Y-1.5681
X5.5832Y-1.6681
X5.5832Y-1.7681
X5.5832Y-1.8681
X5.5832Y-1.9681
X5.5995Y-2.3231
X5.6832Y-1.5681
X5.6832Y-1.6681
X5.6832Y-1.7681
X5.6832Y-1.8681
X5.6832Y-1.9681
X5.6995Y-2.3231
T5
X4.4332Y-2.0688
X4.7332Y-1.2688
X4.8332Y-2.0688
X4.9332Y-1.2688
X5.2332Y-1.2688
X5.2332Y-2.0688
T6
X5.5032Y-3.2881
X5.5032Y-3.6897
X5.5124Y-4.7439
X5.5124Y-5.1455
X5.5125Y-6.2104
X5.5125Y-6.612
T7
X3.3032Y-1.2531
X4.1082Y-1.2524
T0
M30
