%TF.GenerationSoftware,KiCad,Pcbnew,7.0.7*%
%TF.CreationDate,2024-02-23T10:38:31+08:00*%
%TF.ProjectId,sheet1,73686565-7431-42e6-9b69-6361645f7063,2*%
%TF.SameCoordinates,Original*%
%TF.FileFunction,Legend,Bot*%
%TF.FilePolarity,Positive*%
%FSLAX46Y46*%
G04 Gerber Fmt 4.6, Leading zero omitted, Abs format (unit mm)*
G04 Created by KiCad (PCBNEW 7.0.7) date 2024-02-23 10:38:31*
%MOMM*%
%LPD*%
G01*
G04 APERTURE LIST*
%ADD10C,0.254000*%
%ADD11C,0.203200*%
%ADD12C,0.150000*%
%ADD13C,0.120000*%
%ADD14C,0.200000*%
%ADD15C,0.381000*%
%ADD16C,0.127000*%
%ADD17C,0.152400*%
%ADD18C,0.250000*%
G04 APERTURE END LIST*
D10*
X210751609Y-141015747D02*
X210751609Y-142031747D01*
X210751609Y-142031747D02*
X210993514Y-142031747D01*
X210993514Y-142031747D02*
X211138657Y-141983366D01*
X211138657Y-141983366D02*
X211235419Y-141886604D01*
X211235419Y-141886604D02*
X211283800Y-141789842D01*
X211283800Y-141789842D02*
X211332181Y-141596318D01*
X211332181Y-141596318D02*
X211332181Y-141451175D01*
X211332181Y-141451175D02*
X211283800Y-141257651D01*
X211283800Y-141257651D02*
X211235419Y-141160889D01*
X211235419Y-141160889D02*
X211138657Y-141064128D01*
X211138657Y-141064128D02*
X210993514Y-141015747D01*
X210993514Y-141015747D02*
X210751609Y-141015747D01*
X211719228Y-141064128D02*
X211864371Y-141015747D01*
X211864371Y-141015747D02*
X212106276Y-141015747D01*
X212106276Y-141015747D02*
X212203038Y-141064128D01*
X212203038Y-141064128D02*
X212251419Y-141112508D01*
X212251419Y-141112508D02*
X212299800Y-141209270D01*
X212299800Y-141209270D02*
X212299800Y-141306032D01*
X212299800Y-141306032D02*
X212251419Y-141402794D01*
X212251419Y-141402794D02*
X212203038Y-141451175D01*
X212203038Y-141451175D02*
X212106276Y-141499556D01*
X212106276Y-141499556D02*
X211912752Y-141547937D01*
X211912752Y-141547937D02*
X211815990Y-141596318D01*
X211815990Y-141596318D02*
X211767609Y-141644699D01*
X211767609Y-141644699D02*
X211719228Y-141741461D01*
X211719228Y-141741461D02*
X211719228Y-141838223D01*
X211719228Y-141838223D02*
X211767609Y-141934985D01*
X211767609Y-141934985D02*
X211815990Y-141983366D01*
X211815990Y-141983366D02*
X211912752Y-142031747D01*
X211912752Y-142031747D02*
X212154657Y-142031747D01*
X212154657Y-142031747D02*
X212299800Y-141983366D01*
X212735228Y-141015747D02*
X212735228Y-142031747D01*
X212735228Y-142031747D02*
X213122276Y-142031747D01*
X213122276Y-142031747D02*
X213219038Y-141983366D01*
X213219038Y-141983366D02*
X213267419Y-141934985D01*
X213267419Y-141934985D02*
X213315800Y-141838223D01*
X213315800Y-141838223D02*
X213315800Y-141693080D01*
X213315800Y-141693080D02*
X213267419Y-141596318D01*
X213267419Y-141596318D02*
X213219038Y-141547937D01*
X213219038Y-141547937D02*
X213122276Y-141499556D01*
X213122276Y-141499556D02*
X212735228Y-141499556D01*
X214283419Y-141015747D02*
X213702847Y-141015747D01*
X213993133Y-141015747D02*
X213993133Y-142031747D01*
X213993133Y-142031747D02*
X213896371Y-141886604D01*
X213896371Y-141886604D02*
X213799609Y-141789842D01*
X213799609Y-141789842D02*
X213702847Y-141741461D01*
D11*
X267912209Y-94298864D02*
X266642209Y-94298864D01*
X266642209Y-94298864D02*
X266642209Y-94782674D01*
X266642209Y-94782674D02*
X266702685Y-94903626D01*
X266702685Y-94903626D02*
X266763161Y-94964103D01*
X266763161Y-94964103D02*
X266884113Y-95024579D01*
X266884113Y-95024579D02*
X267065542Y-95024579D01*
X267065542Y-95024579D02*
X267186494Y-94964103D01*
X267186494Y-94964103D02*
X267246971Y-94903626D01*
X267246971Y-94903626D02*
X267307447Y-94782674D01*
X267307447Y-94782674D02*
X267307447Y-94298864D01*
X266642209Y-95447912D02*
X267912209Y-95750293D01*
X267912209Y-95750293D02*
X267005066Y-95992198D01*
X267005066Y-95992198D02*
X267912209Y-96234103D01*
X267912209Y-96234103D02*
X266642209Y-96536484D01*
X267912209Y-97020293D02*
X266642209Y-97020293D01*
X266642209Y-97020293D02*
X267549352Y-97443627D01*
X267549352Y-97443627D02*
X266642209Y-97866960D01*
X266642209Y-97866960D02*
X267912209Y-97866960D01*
X268033161Y-98169342D02*
X268033161Y-99136961D01*
X267549352Y-99378865D02*
X267549352Y-99983627D01*
X267912209Y-99257913D02*
X266642209Y-99681246D01*
X266642209Y-99681246D02*
X267912209Y-100104580D01*
X267912209Y-100527912D02*
X266642209Y-100527912D01*
X266642209Y-100527912D02*
X266642209Y-100830293D01*
X266642209Y-100830293D02*
X266702685Y-101011722D01*
X266702685Y-101011722D02*
X266823637Y-101132674D01*
X266823637Y-101132674D02*
X266944590Y-101193151D01*
X266944590Y-101193151D02*
X267186494Y-101253627D01*
X267186494Y-101253627D02*
X267367923Y-101253627D01*
X267367923Y-101253627D02*
X267609828Y-101193151D01*
X267609828Y-101193151D02*
X267730780Y-101132674D01*
X267730780Y-101132674D02*
X267851733Y-101011722D01*
X267851733Y-101011722D02*
X267912209Y-100830293D01*
X267912209Y-100830293D02*
X267912209Y-100527912D01*
X267791256Y-102523627D02*
X267851733Y-102463151D01*
X267851733Y-102463151D02*
X267912209Y-102281722D01*
X267912209Y-102281722D02*
X267912209Y-102160770D01*
X267912209Y-102160770D02*
X267851733Y-101979341D01*
X267851733Y-101979341D02*
X267730780Y-101858389D01*
X267730780Y-101858389D02*
X267609828Y-101797912D01*
X267609828Y-101797912D02*
X267367923Y-101737436D01*
X267367923Y-101737436D02*
X267186494Y-101737436D01*
X267186494Y-101737436D02*
X266944590Y-101797912D01*
X266944590Y-101797912D02*
X266823637Y-101858389D01*
X266823637Y-101858389D02*
X266702685Y-101979341D01*
X266702685Y-101979341D02*
X266642209Y-102160770D01*
X266642209Y-102160770D02*
X266642209Y-102281722D01*
X266642209Y-102281722D02*
X266702685Y-102463151D01*
X266702685Y-102463151D02*
X266763161Y-102523627D01*
X217992264Y-94282790D02*
X217992264Y-95552790D01*
X217992264Y-95552790D02*
X218476074Y-95552790D01*
X218476074Y-95552790D02*
X218597026Y-95492314D01*
X218597026Y-95492314D02*
X218657503Y-95431838D01*
X218657503Y-95431838D02*
X218717979Y-95310886D01*
X218717979Y-95310886D02*
X218717979Y-95129457D01*
X218717979Y-95129457D02*
X218657503Y-95008505D01*
X218657503Y-95008505D02*
X218597026Y-94948028D01*
X218597026Y-94948028D02*
X218476074Y-94887552D01*
X218476074Y-94887552D02*
X217992264Y-94887552D01*
X219201788Y-94645647D02*
X219806550Y-94645647D01*
X219080836Y-94282790D02*
X219504169Y-95552790D01*
X219504169Y-95552790D02*
X219927503Y-94282790D01*
X221016074Y-94282790D02*
X220290359Y-94282790D01*
X220653216Y-94282790D02*
X220653216Y-95552790D01*
X220653216Y-95552790D02*
X220532264Y-95371362D01*
X220532264Y-95371362D02*
X220411312Y-95250409D01*
X220411312Y-95250409D02*
X220290359Y-95189933D01*
X218119264Y-140534790D02*
X218119264Y-141804790D01*
X218119264Y-141804790D02*
X218603074Y-141804790D01*
X218603074Y-141804790D02*
X218724026Y-141744314D01*
X218724026Y-141744314D02*
X218784503Y-141683838D01*
X218784503Y-141683838D02*
X218844979Y-141562886D01*
X218844979Y-141562886D02*
X218844979Y-141381457D01*
X218844979Y-141381457D02*
X218784503Y-141260505D01*
X218784503Y-141260505D02*
X218724026Y-141200028D01*
X218724026Y-141200028D02*
X218603074Y-141139552D01*
X218603074Y-141139552D02*
X218119264Y-141139552D01*
X219812598Y-141200028D02*
X219994026Y-141139552D01*
X219994026Y-141139552D02*
X220054503Y-141079076D01*
X220054503Y-141079076D02*
X220114979Y-140958124D01*
X220114979Y-140958124D02*
X220114979Y-140776695D01*
X220114979Y-140776695D02*
X220054503Y-140655743D01*
X220054503Y-140655743D02*
X219994026Y-140595267D01*
X219994026Y-140595267D02*
X219873074Y-140534790D01*
X219873074Y-140534790D02*
X219389264Y-140534790D01*
X219389264Y-140534790D02*
X219389264Y-141804790D01*
X219389264Y-141804790D02*
X219812598Y-141804790D01*
X219812598Y-141804790D02*
X219933550Y-141744314D01*
X219933550Y-141744314D02*
X219994026Y-141683838D01*
X219994026Y-141683838D02*
X220054503Y-141562886D01*
X220054503Y-141562886D02*
X220054503Y-141441933D01*
X220054503Y-141441933D02*
X219994026Y-141320981D01*
X219994026Y-141320981D02*
X219933550Y-141260505D01*
X219933550Y-141260505D02*
X219812598Y-141200028D01*
X219812598Y-141200028D02*
X219389264Y-141200028D01*
X221324503Y-140534790D02*
X220598788Y-140534790D01*
X220961645Y-140534790D02*
X220961645Y-141804790D01*
X220961645Y-141804790D02*
X220840693Y-141623362D01*
X220840693Y-141623362D02*
X220719741Y-141502409D01*
X220719741Y-141502409D02*
X220598788Y-141441933D01*
D12*
X206531199Y-141267000D02*
X206388342Y-141314619D01*
X206388342Y-141314619D02*
X206150247Y-141314619D01*
X206150247Y-141314619D02*
X206055009Y-141267000D01*
X206055009Y-141267000D02*
X206007390Y-141219380D01*
X206007390Y-141219380D02*
X205959771Y-141124142D01*
X205959771Y-141124142D02*
X205959771Y-141028904D01*
X205959771Y-141028904D02*
X206007390Y-140933666D01*
X206007390Y-140933666D02*
X206055009Y-140886047D01*
X206055009Y-140886047D02*
X206150247Y-140838428D01*
X206150247Y-140838428D02*
X206340723Y-140790809D01*
X206340723Y-140790809D02*
X206435961Y-140743190D01*
X206435961Y-140743190D02*
X206483580Y-140695571D01*
X206483580Y-140695571D02*
X206531199Y-140600333D01*
X206531199Y-140600333D02*
X206531199Y-140505095D01*
X206531199Y-140505095D02*
X206483580Y-140409857D01*
X206483580Y-140409857D02*
X206435961Y-140362238D01*
X206435961Y-140362238D02*
X206340723Y-140314619D01*
X206340723Y-140314619D02*
X206102628Y-140314619D01*
X206102628Y-140314619D02*
X205959771Y-140362238D01*
X205531199Y-141314619D02*
X205531199Y-140314619D01*
X205531199Y-140314619D02*
X205150247Y-140314619D01*
X205150247Y-140314619D02*
X205055009Y-140362238D01*
X205055009Y-140362238D02*
X205007390Y-140409857D01*
X205007390Y-140409857D02*
X204959771Y-140505095D01*
X204959771Y-140505095D02*
X204959771Y-140647952D01*
X204959771Y-140647952D02*
X205007390Y-140743190D01*
X205007390Y-140743190D02*
X205055009Y-140790809D01*
X205055009Y-140790809D02*
X205150247Y-140838428D01*
X205150247Y-140838428D02*
X205531199Y-140838428D01*
X204531199Y-141314619D02*
X204531199Y-140314619D01*
X203531200Y-141314619D02*
X204102628Y-141314619D01*
X203816914Y-141314619D02*
X203816914Y-140314619D01*
X203816914Y-140314619D02*
X203912152Y-140457476D01*
X203912152Y-140457476D02*
X204007390Y-140552714D01*
X204007390Y-140552714D02*
X204102628Y-140600333D01*
D13*
%TO.C,VDC_BUS1*%
X299386200Y-134399800D02*
X299386200Y-131999800D01*
X299386200Y-131999800D02*
X296986200Y-131999800D01*
X296986200Y-134399800D02*
X299386200Y-134399800D01*
X296986200Y-131999800D02*
X296986200Y-134399800D01*
%TO.C,C10*%
X291101200Y-128611048D02*
X291101200Y-129133552D01*
X292571200Y-128611048D02*
X292571200Y-129133552D01*
%TO.C,R32*%
X262621636Y-142159800D02*
X263075764Y-142159800D01*
X262621636Y-140689800D02*
X263075764Y-140689800D01*
%TO.C,TP1*%
X285431200Y-101533800D02*
X285431200Y-103933800D01*
X285431200Y-103933800D02*
X287831200Y-103933800D01*
X287831200Y-101533800D02*
X285431200Y-101533800D01*
X287831200Y-103933800D02*
X287831200Y-101533800D01*
%TO.C,D2*%
X292816200Y-108877300D02*
X292816200Y-109527300D01*
X292816200Y-108877300D02*
X292816200Y-107202300D01*
X295936200Y-108877300D02*
X295936200Y-109527300D01*
X295936200Y-108877300D02*
X295936200Y-108227300D01*
%TO.C,C3*%
X291432693Y-93816800D02*
X291955197Y-93816800D01*
X291432693Y-92346800D02*
X291955197Y-92346800D01*
%TO.C,TP4*%
X287553292Y-149799800D02*
X287553292Y-147399800D01*
X287553292Y-147399800D02*
X285153292Y-147399800D01*
X285153292Y-149799800D02*
X287553292Y-149799800D01*
X285153292Y-147399800D02*
X285153292Y-149799800D01*
%TO.C,TP9*%
X285431200Y-89341800D02*
X285431200Y-91741800D01*
X285431200Y-91741800D02*
X287831200Y-91741800D01*
X287831200Y-89341800D02*
X285431200Y-89341800D01*
X287831200Y-91741800D02*
X287831200Y-89341800D01*
%TO.C,R3*%
X301740764Y-94378800D02*
X301286636Y-94378800D01*
X301740764Y-95848800D02*
X301286636Y-95848800D01*
%TO.C,C11*%
X296181200Y-113371048D02*
X296181200Y-113893552D01*
X297651200Y-113371048D02*
X297651200Y-113893552D01*
%TO.C,R2*%
X301415856Y-142733390D02*
X300961728Y-142733390D01*
X301415856Y-141263390D02*
X300961728Y-141263390D01*
%TO.C,R1*%
X301740764Y-92346800D02*
X301286636Y-92346800D01*
X301740764Y-93816800D02*
X301286636Y-93816800D01*
%TO.C,C2*%
X296015295Y-141260800D02*
X296537799Y-141260800D01*
X296015295Y-142730800D02*
X296537799Y-142730800D01*
%TO.C,R14*%
X287491200Y-121479364D02*
X287491200Y-121025236D01*
X286021200Y-121479364D02*
X286021200Y-121025236D01*
%TO.C,R15*%
X287491200Y-113859364D02*
X287491200Y-113405236D01*
X286021200Y-113859364D02*
X286021200Y-113405236D01*
%TO.C,TP10*%
X287553292Y-140655800D02*
X287553292Y-138255800D01*
X287553292Y-138255800D02*
X285153292Y-138255800D01*
X285153292Y-140655800D02*
X287553292Y-140655800D01*
X285153292Y-138255800D02*
X285153292Y-140655800D01*
%TO.C,R21*%
X293641200Y-128645236D02*
X293641200Y-129099364D01*
X295111200Y-128645236D02*
X295111200Y-129099364D01*
%TO.C,TP7*%
X285431200Y-92389800D02*
X285431200Y-94789800D01*
X285431200Y-94789800D02*
X287831200Y-94789800D01*
X287831200Y-92389800D02*
X285431200Y-92389800D01*
X287831200Y-94789800D02*
X287831200Y-92389800D01*
%TO.C,R7*%
X301740764Y-98442800D02*
X301286636Y-98442800D01*
X301740764Y-99912800D02*
X301286636Y-99912800D01*
%TO.C,TP11*%
X285431200Y-86293800D02*
X285431200Y-88693800D01*
X285431200Y-88693800D02*
X287831200Y-88693800D01*
X287831200Y-86293800D02*
X285431200Y-86293800D01*
X287831200Y-88693800D02*
X287831200Y-86293800D01*
D14*
%TO.C,U1*%
X293203455Y-94552390D02*
G75*
G03*
X294473455Y-94552390I635000J0D01*
G01*
X292175465Y-101032210D02*
X292175465Y-94532200D01*
X293203455Y-94552390D02*
X292195655Y-94552390D01*
X295505455Y-94532200D02*
X294493645Y-94532200D01*
X295505455Y-101032210D02*
X292175465Y-101032210D01*
X295505455Y-101032210D02*
X295505455Y-94532200D01*
D13*
%TO.C,Q1*%
X245992868Y-79834800D02*
X246642868Y-79834800D01*
X245992868Y-79834800D02*
X244317868Y-79834800D01*
X245992868Y-76714800D02*
X246642868Y-76714800D01*
X245992868Y-76714800D02*
X245342868Y-76714800D01*
%TO.C,C6*%
X291101200Y-117181048D02*
X291101200Y-117703552D01*
X292571200Y-117181048D02*
X292571200Y-117703552D01*
%TO.C,R16*%
X287491200Y-117689364D02*
X287491200Y-117235236D01*
X286021200Y-117689364D02*
X286021200Y-117235236D01*
%TO.C,TP2*%
X287553292Y-152847800D02*
X287553292Y-150447800D01*
X287553292Y-150447800D02*
X285153292Y-150447800D01*
X285153292Y-152847800D02*
X287553292Y-152847800D01*
X285153292Y-150447800D02*
X285153292Y-152847800D01*
%TO.C,R8*%
X301415856Y-148826800D02*
X300961728Y-148826800D01*
X301415856Y-147356800D02*
X300961728Y-147356800D01*
%TO.C,D3*%
X252571200Y-77274800D02*
X252571200Y-79959800D01*
X252571200Y-79959800D02*
X250651200Y-79959800D01*
X250651200Y-79959800D02*
X250651200Y-77274800D01*
%TO.C,C8*%
X292571200Y-113893552D02*
X292571200Y-113371048D01*
X291101200Y-113893552D02*
X291101200Y-113371048D01*
%TO.C,TP12*%
X285153292Y-135207800D02*
X285153292Y-137607800D01*
X285153292Y-137607800D02*
X287553292Y-137607800D01*
X287553292Y-135207800D02*
X285153292Y-135207800D01*
X287553292Y-137607800D02*
X287553292Y-135207800D01*
%TO.C,R26*%
X239609136Y-132559800D02*
X240063264Y-132559800D01*
X239609136Y-131089800D02*
X240063264Y-131089800D01*
%TO.C,R22*%
X293641200Y-113405236D02*
X293641200Y-113859364D01*
X295111200Y-113405236D02*
X295111200Y-113859364D01*
%TO.C,R19*%
X288561200Y-124835236D02*
X288561200Y-125289364D01*
X290031200Y-124835236D02*
X290031200Y-125289364D01*
%TO.C,R11*%
X301740764Y-102506800D02*
X301286636Y-102506800D01*
X301740764Y-103976800D02*
X301286636Y-103976800D01*
%TO.C,R5*%
X301740764Y-96410800D02*
X301286636Y-96410800D01*
X301740764Y-97880800D02*
X301286636Y-97880800D01*
%TO.C,C4*%
X291408785Y-141260800D02*
X291931289Y-141260800D01*
X291408785Y-142730800D02*
X291931289Y-142730800D01*
%TO.C,R29*%
X246246764Y-81349800D02*
X245792636Y-81349800D01*
X246246764Y-82819800D02*
X245792636Y-82819800D01*
%TO.C,R23*%
X227821200Y-131264364D02*
X227821200Y-130810236D01*
X226351200Y-131264364D02*
X226351200Y-130810236D01*
%TO.C,R25*%
X243009136Y-132559800D02*
X243463264Y-132559800D01*
X243009136Y-131089800D02*
X243463264Y-131089800D01*
%TO.C,R20*%
X290031200Y-113859364D02*
X290031200Y-113405236D01*
X288561200Y-113859364D02*
X288561200Y-113405236D01*
%TO.C,R6*%
X301415856Y-146794800D02*
X300961728Y-146794800D01*
X301415856Y-145324800D02*
X300961728Y-145324800D01*
%TO.C,R30*%
X243456200Y-78501864D02*
X243456200Y-78047736D01*
X241986200Y-78501864D02*
X241986200Y-78047736D01*
%TO.C,TP6*%
X287553292Y-146751800D02*
X287553292Y-144351800D01*
X287553292Y-144351800D02*
X285153292Y-144351800D01*
X285153292Y-146751800D02*
X287553292Y-146751800D01*
X285153292Y-144351800D02*
X285153292Y-146751800D01*
D15*
%TO.C,DSP1*%
X217911800Y-132496200D02*
G75*
G03*
X217911800Y-132496200I-127000J0D01*
G01*
X275562829Y-93463371D02*
G75*
G03*
X275562829Y-93463371I-127000J0D01*
G01*
X216794200Y-86369800D02*
G75*
G03*
X216794200Y-86369800I-127000J0D01*
G01*
D16*
X210345200Y-138919800D02*
G75*
G03*
X211615200Y-140189800I1270000J0D01*
G01*
X274579200Y-140189800D02*
G75*
G03*
X275849200Y-138919800I0J1270000D01*
G01*
X210345200Y-115480800D02*
G75*
G03*
X210345200Y-112980800I0J1250000D01*
G01*
X212468590Y-85967800D02*
G75*
G03*
X210291450Y-88144940I2J-2177142D01*
G01*
X275849200Y-87237800D02*
G75*
G03*
X274579200Y-85967800I-1269999J1D01*
G01*
X211615200Y-140189800D02*
X231117200Y-140189800D01*
X231117200Y-140189800D02*
X274579200Y-140189800D01*
D11*
X217683200Y-139836800D02*
X255783200Y-139836800D01*
X255656200Y-139836800D02*
X268356200Y-139836800D01*
D17*
X248925200Y-136534800D02*
X249306200Y-136534800D01*
X249306200Y-136534800D02*
X249687200Y-136534800D01*
X249306200Y-136153800D02*
X249306200Y-136915800D01*
D11*
X217556200Y-135034800D02*
X217556200Y-138034800D01*
X268356200Y-135034800D02*
X268356200Y-138034800D01*
X217556200Y-132851800D02*
X255656200Y-132851800D01*
X255529200Y-132851800D02*
X268229200Y-132851800D01*
X270285200Y-132597800D02*
X273285200Y-132597800D01*
D16*
X210345200Y-115480800D02*
X210345200Y-138919800D01*
X275849200Y-100196200D02*
X275849200Y-138947800D01*
D11*
X268483200Y-94243800D02*
X268483200Y-132597800D01*
X270285200Y-94243800D02*
X273285200Y-94243800D01*
X274960200Y-94116800D02*
X274960200Y-132470800D01*
X217556200Y-93608800D02*
X255656200Y-93608800D01*
X255656200Y-93608800D02*
X268483200Y-93608800D01*
X217556200Y-88425800D02*
X217556200Y-91425800D01*
X268483200Y-88425800D02*
X268483200Y-91425800D01*
D16*
X210291450Y-88144940D02*
X210291450Y-112949940D01*
X275849200Y-87237800D02*
X275849200Y-100196200D01*
D11*
X217556200Y-86623800D02*
X255656200Y-86623800D01*
X255656200Y-86623800D02*
X268483200Y-86623800D01*
D16*
X212468590Y-85967800D02*
X231526200Y-85967800D01*
X231117200Y-85967800D02*
X274579200Y-85967800D01*
D18*
%TO.C,N1*%
X294591200Y-125962300D02*
G75*
G03*
X294591200Y-125962300I-125000J0D01*
G01*
D14*
X297716200Y-116852300D02*
X297716200Y-125652300D01*
X296116200Y-125652300D02*
X297716200Y-125652300D01*
X296116200Y-116852300D02*
X297716200Y-116852300D01*
X296116200Y-116852300D02*
X296116200Y-125652300D01*
D13*
%TO.C,R24*%
X230497866Y-131264364D02*
X230497866Y-130810236D01*
X229027866Y-131264364D02*
X229027866Y-130810236D01*
%TO.C,R4*%
X301415856Y-144762800D02*
X300961728Y-144762800D01*
X301415856Y-143292800D02*
X300961728Y-143292800D01*
%TO.C,TP5*%
X285431200Y-95437800D02*
X285431200Y-97837800D01*
X285431200Y-97837800D02*
X287831200Y-97837800D01*
X287831200Y-95437800D02*
X285431200Y-95437800D01*
X287831200Y-97837800D02*
X287831200Y-95437800D01*
%TO.C,C9*%
X297651200Y-129133552D02*
X297651200Y-128611048D01*
X296181200Y-129133552D02*
X296181200Y-128611048D01*
%TO.C,R9*%
X301740764Y-100474800D02*
X301286636Y-100474800D01*
X301740764Y-101944800D02*
X301286636Y-101944800D01*
%TO.C,C7*%
X291101200Y-124801048D02*
X291101200Y-125323552D01*
X292571200Y-124801048D02*
X292571200Y-125323552D01*
%TO.C,R31*%
X249999534Y-78501864D02*
X249999534Y-78047736D01*
X248529534Y-78501864D02*
X248529534Y-78047736D01*
D14*
%TO.C,U2*%
X295481547Y-150454210D02*
X295481547Y-143954200D01*
X295481547Y-150454210D02*
X292151557Y-150454210D01*
X295481547Y-143954200D02*
X294469737Y-143954200D01*
X293179547Y-143974390D02*
X292171747Y-143974390D01*
X292151557Y-150454210D02*
X292151557Y-143954200D01*
X293179547Y-143974390D02*
G75*
G03*
X294449547Y-143974390I635000J0D01*
G01*
D13*
%TO.C,TP3*%
X285431200Y-98485800D02*
X285431200Y-100885800D01*
X285431200Y-100885800D02*
X287831200Y-100885800D01*
X287831200Y-98485800D02*
X285431200Y-98485800D01*
X287831200Y-100885800D02*
X287831200Y-98485800D01*
%TO.C,R33*%
X266475764Y-140689800D02*
X266021636Y-140689800D01*
X266475764Y-142159800D02*
X266021636Y-142159800D01*
%TO.C,R28*%
X266021636Y-132534800D02*
X266475764Y-132534800D01*
X266021636Y-131064800D02*
X266475764Y-131064800D01*
%TO.C,VDC_BUS2*%
X299386200Y-111022300D02*
X299386200Y-108622300D01*
X299386200Y-108622300D02*
X296986200Y-108622300D01*
X296986200Y-111022300D02*
X299386200Y-111022300D01*
X296986200Y-108622300D02*
X296986200Y-111022300D01*
%TO.C,R17*%
X288561200Y-121025236D02*
X288561200Y-121479364D01*
X290031200Y-121025236D02*
X290031200Y-121479364D01*
%TO.C,C12*%
X231734534Y-130776048D02*
X231734534Y-131298552D01*
X233204534Y-130776048D02*
X233204534Y-131298552D01*
%TO.C,C5*%
X291101200Y-120991048D02*
X291101200Y-121513552D01*
X292571200Y-120991048D02*
X292571200Y-121513552D01*
%TO.C,TP8*%
X287553292Y-143703800D02*
X287553292Y-141303800D01*
X287553292Y-141303800D02*
X285153292Y-141303800D01*
X285153292Y-143703800D02*
X287553292Y-143703800D01*
X285153292Y-141303800D02*
X285153292Y-143703800D01*
%TO.C,D1*%
X295936200Y-133619800D02*
X295936200Y-132969800D01*
X295936200Y-133619800D02*
X295936200Y-135294800D01*
X292816200Y-133619800D02*
X292816200Y-132969800D01*
X292816200Y-133619800D02*
X292816200Y-134269800D01*
%TO.C,R13*%
X286021200Y-124835236D02*
X286021200Y-125289364D01*
X287491200Y-124835236D02*
X287491200Y-125289364D01*
%TO.C,R12*%
X301415856Y-152890800D02*
X300961728Y-152890800D01*
X301415856Y-151420800D02*
X300961728Y-151420800D01*
%TO.C,R18*%
X288561200Y-117235236D02*
X288561200Y-117689364D01*
X290031200Y-117235236D02*
X290031200Y-117689364D01*
%TO.C,R27*%
X263075764Y-131064800D02*
X262621636Y-131064800D01*
X263075764Y-132534800D02*
X262621636Y-132534800D01*
%TO.C,C1*%
X296039203Y-93816800D02*
X296561707Y-93816800D01*
X296039203Y-92346800D02*
X296561707Y-92346800D01*
%TO.C,SPI1*%
X209591200Y-139969800D02*
X209591200Y-106689800D01*
X209591200Y-106689800D02*
X200471200Y-106689800D01*
X208281200Y-138669800D02*
X208281200Y-107989800D01*
X208281200Y-107989800D02*
X201781200Y-107989800D01*
X201781200Y-138669800D02*
X208281200Y-138669800D01*
X201781200Y-125379800D02*
X201781200Y-138669800D01*
X201781200Y-121279800D02*
X201781200Y-121279800D01*
X201781200Y-121279800D02*
X200471200Y-121279800D01*
X201781200Y-107989800D02*
X201781200Y-121279800D01*
X200471200Y-139969800D02*
X209591200Y-139969800D01*
X200471200Y-125379800D02*
X201781200Y-125379800D01*
X200471200Y-106689800D02*
X200471200Y-139969800D01*
X200081200Y-134759800D02*
X199081200Y-135259800D01*
X199081200Y-135259800D02*
X199081200Y-134259800D01*
X199081200Y-134259800D02*
X200081200Y-134759800D01*
%TO.C,R10*%
X301415856Y-150858800D02*
X300961728Y-150858800D01*
X301415856Y-149388800D02*
X300961728Y-149388800D01*
%TD*%
M02*
