M48
; DRILL file {KiCad 7.0.7} date Fri Feb 23 10:40:33 2024
; FORMAT={-:-/ absolute / inch / decimal}
; #@! TF.CreationDate,2024-02-23T10:40:33+08:00
; #@! TF.GenerationSoftware,Kicad,Pcbnew,7.0.7
; #@! TF.FileFunction,Plated,1,4,PTH
FMAT,2
INCH
; #@! TA.AperFunction,Plated,PTH,ViaDrill
T1C0.0118
; #@! TA.AperFunction,Plated,PTH,ComponentDrill
T2C0.0394
; #@! TA.AperFunction,Plated,PTH,ComponentDrill
T3C0.0866
%
G90
G05
T1
X7.3878Y-4.122
X7.3878Y-4.3681
X7.5Y-3.8976
X7.5197Y-5.5654
X7.5787Y-3.8976
X7.6022Y-5.8064
X7.6052Y-3.7554
X7.6197Y-5.5654
X7.6752Y-3.3504
X7.7052Y-5.6954
X7.7702Y-3.7454
X7.7802Y-3.2954
X7.9068Y-4.1791
X7.9102Y-3.5354
X7.9102Y-3.7754
X7.9102Y-4.1204
X7.9952Y-3.2604
X8.0102Y-3.8754
X8.0252Y-5.6454
X8.1152Y-3.2654
X8.1152Y-3.8704
X8.1252Y-3.6954
X8.1702Y-5.3904
X8.1802Y-5.7105
X8.1902Y-4.0254
X8.1956Y-4.7424
X8.2202Y-3.6904
X8.2252Y-5.6054
X8.2602Y-5.5504
X8.2704Y-5.4195
X8.3144Y-5.1653
X8.3144Y-5.2057
X8.3552Y-4.2654
X8.394Y-5.1392
X8.3952Y-4.4704
X8.4404Y-5.6839
X8.4502Y-4.5204
X8.4729Y-5.6555
X8.4867Y-5.2037
X8.5352Y-4.2404
X8.5452Y-4.0454
X8.5452Y-4.6154
X8.5733Y-5.1663
X8.6002Y-4.5154
X8.6038Y-3.684
X8.6052Y-4.1654
X8.6302Y-5.6004
X8.6678Y-5.6839
X8.6904Y-5.2037
X8.7173Y-4.1711
X8.7352Y-3.5454
X8.7396Y-5.1939
X8.7502Y-3.9004
X8.7652Y-5.6614
X8.8098Y-4.075
X8.8102Y-3.9654
X8.8202Y-4.7504
X8.8302Y-5.2204
X8.8502Y-4.5004
X8.8652Y-5.6754
X8.901Y-3.5384
X8.9302Y-4.2404
X8.9352Y-4.6154
X8.9401Y-3.47
X8.9401Y-3.6118
X8.9602Y-4.5154
X8.9802Y-4.2104
X8.9901Y-3.47
X8.9901Y-3.6118
X8.9906Y-4.7096
X8.9921Y-4.1166
X9.0595Y-3.813
X9.0602Y-5.0704
X9.0752Y-4.4854
X9.0901Y-3.47
X9.0901Y-3.6118
X9.1401Y-3.6118
X9.1602Y-3.5404
X9.1702Y-5.0704
X9.1902Y-4.0054
X9.1952Y-3.9304
X9.2002Y-3.7104
X9.2002Y-3.8354
X9.2406Y-3.813
X9.3102Y-5.6754
X9.4752Y-4.4604
X9.4802Y-3.7104
X9.4989Y-3.964
X9.5452Y-2.9904
X9.6102Y-5.7454
X9.6401Y-3.47
X9.6401Y-3.6118
X9.6402Y-3.5404
X9.7152Y-5.8704
X9.7402Y-4.5504
X9.7614Y-3.7015
X9.8102Y-4.4554
X9.8902Y-5.7404
X9.8902Y-5.8754
X9.9052Y-4.5504
X9.9152Y-3.2004
X9.9158Y-3.2642
X9.9158Y-3.3114
X9.9158Y-3.3592
X9.9339Y-3.529
X9.9352Y-3.7804
X9.9552Y-4.4554
X9.9752Y-4.5404
X9.9901Y-3.6118
X10.029Y-3.9842
X10.0449Y-3.591
X10.0502Y-3.7954
X10.0752Y-4.0304
X10.0901Y-3.591
X10.1102Y-3.8504
X10.1102Y-4.0604
X10.1152Y-5.7404
X10.1202Y-3.5504
X10.1352Y-4.4554
X10.1352Y-5.8654
X10.1852Y-4.5404
X10.1902Y-5.3044
X10.2002Y-4.1454
X10.2202Y-4.0604
X10.2502Y-5.5704
X10.2802Y-4.0104
X10.3124Y-5.189
X10.3402Y-4.0954
X10.3902Y-5.3044
X10.4002Y-3.5454
X10.436Y-4.2146
X10.4401Y-3.47
X10.4402Y-5.7454
X10.4602Y-4.3204
X10.4723Y-4.2671
X10.4901Y-3.47
X10.5241Y-4.1919
X10.5602Y-5.8654
X10.5802Y-5.5754
X10.6292Y-4.3904
X10.6552Y-4.4404
X10.6552Y-4.4904
X10.6973Y-4.9232
X10.7652Y-4.4904
X10.7702Y-4.4404
X10.7709Y-4.3404
X10.7709Y-4.5904
X10.8439Y-4.6634
X10.9Y-4.2835
X10.901Y-4.752
X10.9252Y-4.4704
X10.9355Y-4.1713
X10.9424Y-4.8159
X11.0252Y-4.3704
X11.0352Y-4.6604
X11.1052Y-5.0704
X11.1152Y-5.1504
X11.1205Y-4.9904
X11.1252Y-5.5804
X11.1286Y-4.9569
X11.1352Y-4.5604
X11.15Y-5.0551
X11.15Y-5.0868
X11.1501Y-5.1192
X11.1502Y-5.6854
X11.1552Y-4.9254
X11.1802Y-5.8204
X11.1952Y-5.9404
X11.2102Y-4.1904
X11.2202Y-4.7404
X11.2252Y-4.5904
X11.2302Y-4.4404
X11.2502Y-4.8504
X11.2896Y-4.4378
X11.2896Y-4.5886
X11.2896Y-4.7378
X11.2896Y-4.9596
X11.3002Y-4.3504
X11.3302Y-5.0854
X11.4394Y-4.5472
X11.4702Y-4.1804
X11.4702Y-5.2404
X11.4896Y-5.0363
X11.4896Y-5.1111
X11.5202Y-3.6654
X11.5452Y-4.9904
X11.5502Y-4.2504
X11.5502Y-5.3504
X11.5526Y-4.372
X11.5652Y-4.0904
X11.6252Y-5.5904
X11.6302Y-3.6654
X11.6452Y-4.0054
X11.655Y-5.7315
X11.655Y-5.7571
X11.655Y-5.7826
X11.655Y-5.8082
X11.655Y-5.8338
X11.655Y-5.8594
X11.6602Y-5.9154
X11.6756Y-5.6476
X11.6896Y-5.0363
X11.6902Y-4.4354
X11.6902Y-4.6754
X11.6902Y-5.1104
X11.6952Y-4.6204
X11.7852Y-4.7704
X11.7902Y-3.6704
X11.7902Y-3.7504
X11.7902Y-3.9004
X11.7952Y-3.8154
X11.7952Y-3.9854
X11.9065Y-3.6646
X11.9065Y-3.7446
X11.9065Y-3.8246
X11.9065Y-3.9046
X11.9065Y-3.9846
X11.9065Y-4.0646
X12.0902Y-5.0954
X12.1002Y-4.9504
X12.1902Y-4.8804
X12.1902Y-5.1754
X12.2902Y-4.8804
X12.3002Y-5.1804
T2
X7.5197Y-4.0577
X7.5197Y-4.1577
X7.5197Y-4.2577
X7.5197Y-4.3577
X7.5197Y-4.4577
X7.5197Y-4.5577
X7.5197Y-4.6577
X7.5197Y-4.7577
X7.5197Y-4.8577
X7.5197Y-4.9577
X7.5197Y-5.0577
X7.5197Y-5.1577
X7.5197Y-5.2577
X7.5197Y-5.3577
X7.5197Y-5.4577
X7.6197Y-4.0577
X7.6197Y-4.1577
X7.6197Y-4.2577
X7.6197Y-4.3577
X7.6197Y-4.4577
X7.6197Y-4.5577
X7.6197Y-4.6577
X7.6197Y-4.7577
X7.6197Y-4.8577
X7.6197Y-4.9577
X7.6197Y-5.0577
X7.6197Y-5.1577
X7.6197Y-5.2577
X7.6197Y-5.3577
X7.6197Y-5.4577
X7.8058Y-3.0758
X7.8058Y-3.1758
X7.9008Y-5.7844
X7.9008Y-5.8844
X7.9058Y-3.0758
X7.9058Y-3.1758
X8.0008Y-5.7844
X8.0008Y-5.8844
X8.0058Y-3.0758
X8.0058Y-3.1758
X8.0221Y-4.4055
X8.0221Y-4.5055
X8.0221Y-4.6055
X8.0221Y-4.7055
X8.0221Y-4.8055
X8.0221Y-4.9055
X8.0221Y-5.0055
X8.0221Y-5.1055
X8.0221Y-5.2055
X8.0221Y-5.3055
X8.1008Y-5.7844
X8.1008Y-5.8844
X8.1058Y-3.0758
X8.1058Y-3.1758
X8.1221Y-4.4055
X8.1221Y-4.5055
X8.1221Y-4.6055
X8.1221Y-4.7055
X8.1221Y-4.8055
X8.1221Y-4.9055
X8.1221Y-5.0055
X8.1221Y-5.1055
X8.1221Y-5.2055
X8.1221Y-5.3055
X8.2008Y-5.7844
X8.2008Y-5.8844
X8.2058Y-3.0758
X8.2058Y-3.1758
X8.3008Y-5.7844
X8.3008Y-5.8844
X8.3058Y-3.0758
X8.3058Y-3.1758
X8.3512Y-3.7583
X8.3512Y-3.8583
X8.3512Y-3.9583
X8.3512Y-4.0583
X8.4008Y-5.7844
X8.4008Y-5.8844
X8.4058Y-3.0758
X8.4058Y-3.1758
X8.4512Y-3.7583
X8.4512Y-3.8583
X8.4512Y-3.9583
X8.4512Y-4.0583
X8.4971Y-4.3183
X8.4971Y-4.4183
X8.5008Y-5.7844
X8.5008Y-5.8844
X8.5058Y-3.0758
X8.5058Y-3.1758
X8.5971Y-4.3183
X8.5971Y-4.4183
X8.6008Y-5.7844
X8.6008Y-5.8844
X8.6058Y-3.0758
X8.6058Y-3.1758
X8.6971Y-4.3183
X8.6971Y-4.4183
X8.7008Y-5.7844
X8.7008Y-5.8844
X8.7058Y-3.0758
X8.7058Y-3.1758
X8.7971Y-4.3183
X8.7971Y-4.4183
X8.8008Y-5.7844
X8.8008Y-5.8844
X8.8058Y-3.0758
X8.8058Y-3.1758
X8.8906Y-3.7589
X8.8906Y-3.8589
X8.8906Y-3.9589
X8.8906Y-4.0589
X8.8971Y-4.3183
X8.8971Y-4.4183
X8.9008Y-5.7844
X8.9008Y-5.8844
X8.9058Y-3.0758
X8.9058Y-3.1758
X8.9408Y-4.8415
X8.9408Y-4.9415
X8.9906Y-3.7589
X8.9906Y-3.8589
X8.9906Y-3.9589
X8.9906Y-4.0589
X8.9971Y-4.3183
X8.9971Y-4.4183
X9.0008Y-5.7844
X9.0008Y-5.8844
X9.0058Y-3.0758
X9.0058Y-3.1758
X9.0408Y-4.8415
X9.0408Y-4.9415
X9.0971Y-4.3183
X9.0971Y-4.4183
X9.1008Y-5.7844
X9.1008Y-5.8844
X9.1058Y-3.0758
X9.1058Y-3.1758
X9.1971Y-4.3183
X9.1971Y-4.4183
X9.2008Y-5.7844
X9.2008Y-5.8844
X9.2058Y-3.0758
X9.2058Y-3.1758
X9.2902Y-3.7549
X9.2902Y-3.8549
X9.2902Y-3.9549
X9.2902Y-4.0549
X9.2971Y-4.3183
X9.2971Y-4.4183
X9.3008Y-5.7844
X9.3008Y-5.8844
X9.3902Y-3.7549
X9.3902Y-3.8549
X9.3902Y-3.9549
X9.3902Y-4.0549
X9.3971Y-4.3183
X9.3971Y-4.4183
X9.5664Y-4.7106
X9.5664Y-4.8106
X9.5664Y-4.9106
X9.5664Y-5.0106
X9.6664Y-4.7106
X9.6664Y-4.8106
X9.6664Y-4.9106
X9.6664Y-5.0106
X9.8203Y-4.7087
X9.8203Y-4.8087
X9.8203Y-4.9087
X9.8203Y-5.0087
X9.9203Y-4.7087
X9.9203Y-4.8087
X9.9203Y-4.9087
X9.9203Y-5.0087
X10.0821Y-4.7087
X10.0821Y-4.8087
X10.0821Y-4.9087
X10.0821Y-5.0087
X10.1821Y-4.7087
X10.1821Y-4.8087
X10.1821Y-4.9087
X10.1821Y-5.0087
X10.2268Y-3.1201
X10.2268Y-3.2201
X10.3268Y-3.1201
X10.3268Y-3.2201
X10.3739Y-4.7089
X10.3739Y-4.8089
X10.3739Y-4.9089
X10.3739Y-5.0089
X10.4268Y-3.1201
X10.4268Y-3.2201
X10.4739Y-4.7089
X10.4739Y-4.8089
X10.4739Y-4.9089
X10.4739Y-5.0089
X10.5268Y-3.1201
X10.5268Y-3.2201
X10.6268Y-3.1201
X10.6268Y-3.2201
X10.9293Y-5.3168
X10.9293Y-5.4168
X10.9293Y-5.5168
X10.9293Y-5.6168
X10.9293Y-5.7168
X10.9293Y-5.8168
X10.9293Y-5.9168
X10.9293Y-6.0168
X10.9846Y-3.128
X10.9846Y-3.228
X10.9846Y-3.328
X10.9846Y-3.428
X10.9846Y-3.528
X10.9846Y-3.628
X10.9846Y-3.728
X10.9846Y-3.828
X11.0293Y-5.3168
X11.0293Y-5.4168
X11.0293Y-5.5168
X11.0293Y-5.6168
X11.0293Y-5.7168
X11.0293Y-5.8168
X11.0293Y-5.9168
X11.0293Y-6.0168
X11.0846Y-3.128
X11.0846Y-3.228
X11.0846Y-3.328
X11.0846Y-3.428
X11.0846Y-3.528
X11.0846Y-3.628
X11.0846Y-3.728
X11.0846Y-3.828
X12.1893Y-4.9855
X12.1893Y-5.0855
X12.1907Y-3.0639
X12.1907Y-3.1639
X12.2893Y-4.9855
X12.2893Y-5.0855
X12.2907Y-3.0639
X12.2907Y-3.1639
T3
X8.4302Y-3.5454
X8.4302Y-5.3754
X10.7002Y-3.5454
X10.7002Y-5.3754
T0
M30
