%TF.GenerationSoftware,KiCad,Pcbnew,7.0.7*%
%TF.CreationDate,2024-02-23T10:38:31+08:00*%
%TF.ProjectId,sheet1,73686565-7431-42e6-9b69-6361645f7063,2*%
%TF.SameCoordinates,Original*%
%TF.FileFunction,Paste,Bot*%
%TF.FilePolarity,Positive*%
%FSLAX46Y46*%
G04 Gerber Fmt 4.6, Leading zero omitted, Abs format (unit mm)*
G04 Created by KiCad (PCBNEW 7.0.7) date 2024-02-23 10:38:31*
%MOMM*%
%LPD*%
G01*
G04 APERTURE LIST*
G04 Aperture macros list*
%AMRoundRect*
0 Rectangle with rounded corners*
0 $1 Rounding radius*
0 $2 $3 $4 $5 $6 $7 $8 $9 X,Y pos of 4 corners*
0 Add a 4 corners polygon primitive as box body*
4,1,4,$2,$3,$4,$5,$6,$7,$8,$9,$2,$3,0*
0 Add four circle primitives for the rounded corners*
1,1,$1+$1,$2,$3*
1,1,$1+$1,$4,$5*
1,1,$1+$1,$6,$7*
1,1,$1+$1,$8,$9*
0 Add four rect primitives between the rounded corners*
20,1,$1+$1,$2,$3,$4,$5,0*
20,1,$1+$1,$4,$5,$6,$7,0*
20,1,$1+$1,$6,$7,$8,$9,0*
20,1,$1+$1,$8,$9,$2,$3,0*%
G04 Aperture macros list end*
%ADD10RoundRect,0.250000X-0.475000X0.250000X-0.475000X-0.250000X0.475000X-0.250000X0.475000X0.250000X0*%
%ADD11RoundRect,0.250000X-0.262500X-0.450000X0.262500X-0.450000X0.262500X0.450000X-0.262500X0.450000X0*%
%ADD12RoundRect,0.150000X-0.150000X0.587500X-0.150000X-0.587500X0.150000X-0.587500X0.150000X0.587500X0*%
%ADD13RoundRect,0.250000X-0.250000X-0.475000X0.250000X-0.475000X0.250000X0.475000X-0.250000X0.475000X0*%
%ADD14RoundRect,0.250000X0.262500X0.450000X-0.262500X0.450000X-0.262500X-0.450000X0.262500X-0.450000X0*%
%ADD15RoundRect,0.250000X0.450000X-0.262500X0.450000X0.262500X-0.450000X0.262500X-0.450000X-0.262500X0*%
%ADD16RoundRect,0.250000X-0.450000X0.262500X-0.450000X-0.262500X0.450000X-0.262500X0.450000X0.262500X0*%
%ADD17O,1.143000X0.330000*%
%ADD18R,1.143000X0.330000*%
%ADD19RoundRect,0.150000X-0.587500X-0.150000X0.587500X-0.150000X0.587500X0.150000X-0.587500X0.150000X0*%
%ADD20RoundRect,0.243750X0.456250X-0.243750X0.456250X0.243750X-0.456250X0.243750X-0.456250X-0.243750X0*%
%ADD21RoundRect,0.250000X0.475000X-0.250000X0.475000X0.250000X-0.475000X0.250000X-0.475000X-0.250000X0*%
%ADD22R,2.100000X0.750000*%
%ADD23R,0.750000X2.100000*%
%ADD24O,2.500000X0.700000*%
%ADD25RoundRect,0.150000X0.150000X-0.587500X0.150000X0.587500X-0.150000X0.587500X-0.150000X-0.587500X0*%
G04 APERTURE END LIST*
D10*
%TO.C,C10*%
X291836200Y-129822300D03*
X291836200Y-127922300D03*
%TD*%
D11*
%TO.C,R32*%
X263761200Y-141424800D03*
X261936200Y-141424800D03*
%TD*%
D12*
%TO.C,D2*%
X294376200Y-109814800D03*
X295326200Y-107939800D03*
X293426200Y-107939800D03*
%TD*%
D13*
%TO.C,C3*%
X292643945Y-93081800D03*
X290743945Y-93081800D03*
%TD*%
D14*
%TO.C,R3*%
X300601200Y-95113800D03*
X302426200Y-95113800D03*
%TD*%
D10*
%TO.C,C11*%
X296916200Y-114582300D03*
X296916200Y-112682300D03*
%TD*%
D14*
%TO.C,R2*%
X302101292Y-141998390D03*
X300276292Y-141998390D03*
%TD*%
%TO.C,R1*%
X300601200Y-93081800D03*
X302426200Y-93081800D03*
%TD*%
D13*
%TO.C,C2*%
X295326547Y-141995800D03*
X297226547Y-141995800D03*
%TD*%
D15*
%TO.C,R14*%
X286756200Y-120339800D03*
X286756200Y-122164800D03*
%TD*%
%TO.C,R15*%
X286756200Y-112719800D03*
X286756200Y-114544800D03*
%TD*%
D16*
%TO.C,R21*%
X294376200Y-129784800D03*
X294376200Y-127959800D03*
%TD*%
D14*
%TO.C,R7*%
X300601200Y-99177800D03*
X302426200Y-99177800D03*
%TD*%
D17*
%TO.C,U1*%
X290540445Y-94857190D03*
X290540465Y-95507200D03*
X290540445Y-96157190D03*
X290540465Y-96807200D03*
X290540465Y-97457180D03*
X290540465Y-98107200D03*
X290540465Y-98757210D03*
X290540465Y-99407190D03*
X290540465Y-100057200D03*
X290540465Y-100707190D03*
X297140455Y-100707190D03*
X297140455Y-100057200D03*
X297140455Y-99407190D03*
X297140455Y-98757210D03*
X297140455Y-98107200D03*
X297140455Y-97457180D03*
X297140455Y-96807200D03*
X297140455Y-96157190D03*
X297140455Y-95507200D03*
D18*
X297140455Y-94857190D03*
%TD*%
D19*
%TO.C,Q1*%
X246930368Y-78274800D03*
X245055368Y-77324800D03*
X245055368Y-79224800D03*
%TD*%
D10*
%TO.C,C6*%
X291836200Y-118392300D03*
X291836200Y-116492300D03*
%TD*%
D15*
%TO.C,R16*%
X286756200Y-116549800D03*
X286756200Y-118374800D03*
%TD*%
D14*
%TO.C,R8*%
X302101292Y-148091800D03*
X300276292Y-148091800D03*
%TD*%
D20*
%TO.C,D3*%
X251611200Y-77337300D03*
X251611200Y-79212300D03*
%TD*%
D21*
%TO.C,C8*%
X291836200Y-112682300D03*
X291836200Y-114582300D03*
%TD*%
D11*
%TO.C,R26*%
X240748700Y-131824800D03*
X238923700Y-131824800D03*
%TD*%
D16*
%TO.C,R22*%
X294376200Y-114544800D03*
X294376200Y-112719800D03*
%TD*%
%TO.C,R19*%
X289296200Y-125974800D03*
X289296200Y-124149800D03*
%TD*%
D14*
%TO.C,R11*%
X300601200Y-103241800D03*
X302426200Y-103241800D03*
%TD*%
%TO.C,R5*%
X300601200Y-97145800D03*
X302426200Y-97145800D03*
%TD*%
D13*
%TO.C,C4*%
X290720037Y-141995800D03*
X292620037Y-141995800D03*
%TD*%
D14*
%TO.C,R29*%
X245107200Y-82084800D03*
X246932200Y-82084800D03*
%TD*%
D15*
%TO.C,R23*%
X227086200Y-130124800D03*
X227086200Y-131949800D03*
%TD*%
D11*
%TO.C,R25*%
X244148700Y-131824800D03*
X242323700Y-131824800D03*
%TD*%
D15*
%TO.C,R20*%
X289296200Y-112719800D03*
X289296200Y-114544800D03*
%TD*%
D14*
%TO.C,R6*%
X302101292Y-146059800D03*
X300276292Y-146059800D03*
%TD*%
D15*
%TO.C,R30*%
X242721200Y-77362300D03*
X242721200Y-79187300D03*
%TD*%
D22*
%TO.C,DSP1*%
X269981800Y-131835800D03*
X273581800Y-131835800D03*
X269981800Y-130565800D03*
X273581800Y-130565800D03*
X269981800Y-129295800D03*
X273581800Y-129295800D03*
X269981800Y-128025800D03*
X273581800Y-128025800D03*
X269981800Y-126755800D03*
X273581800Y-126755800D03*
X269981800Y-125485800D03*
X273581800Y-125485800D03*
X269981800Y-124215800D03*
X273581800Y-124215800D03*
X269981800Y-122945800D03*
X273581800Y-122945800D03*
X269981800Y-121675800D03*
X273581800Y-121675800D03*
X269981800Y-120405800D03*
X273581800Y-120405800D03*
X269981800Y-119135800D03*
X273581800Y-119135800D03*
X269981800Y-117865800D03*
X273581800Y-117865800D03*
X269981800Y-116595800D03*
X273581800Y-116595800D03*
X269981800Y-115325800D03*
X273581800Y-115325800D03*
X269981800Y-114055800D03*
X273581800Y-114055800D03*
X269981800Y-112785800D03*
X273581800Y-112785800D03*
X269981800Y-111515800D03*
X273581800Y-111515800D03*
X269981800Y-110245800D03*
X273581800Y-110245800D03*
X269981800Y-108975800D03*
X273581800Y-108975800D03*
X269981800Y-107705800D03*
X273581800Y-107705800D03*
X269981800Y-106435800D03*
X273581800Y-106435800D03*
X269981800Y-105165800D03*
X273581800Y-105165800D03*
X269981800Y-103895800D03*
X273581800Y-103895800D03*
X269981800Y-102625800D03*
X273581800Y-102625800D03*
X269981800Y-101355800D03*
X273581800Y-101355800D03*
X269981800Y-100085800D03*
X273581800Y-100085800D03*
X269981800Y-98815800D03*
X273581800Y-98815800D03*
X269981800Y-97545800D03*
X273581800Y-97545800D03*
X269981800Y-96275800D03*
X273581800Y-96275800D03*
X269981800Y-95005800D03*
X273581800Y-95005800D03*
D23*
X267721200Y-138331400D03*
X267721200Y-134731400D03*
X266451200Y-138331400D03*
X266451200Y-134731400D03*
X265181200Y-138331400D03*
X265181200Y-134731400D03*
X263911200Y-138331400D03*
X263911200Y-134731400D03*
X262641200Y-138331400D03*
X262641200Y-134731400D03*
X261371200Y-138331400D03*
X261371200Y-134731400D03*
X260101200Y-138331400D03*
X260101200Y-134731400D03*
X258831200Y-138331400D03*
X258831200Y-134731400D03*
X257561200Y-138331400D03*
X257561200Y-134731400D03*
X256291200Y-138331400D03*
X256291200Y-134731400D03*
X255021200Y-138331400D03*
X255021200Y-134731400D03*
X253751200Y-138331400D03*
X253751200Y-134731400D03*
X252481200Y-138331400D03*
X252481200Y-134731400D03*
X251211200Y-138331400D03*
X251211200Y-134731400D03*
X249941200Y-138331400D03*
X249941200Y-134731400D03*
X248671200Y-138331400D03*
X248671200Y-134731400D03*
X247401200Y-138331400D03*
X247401200Y-134731400D03*
X246131200Y-138331400D03*
X246131200Y-134731400D03*
X244861200Y-138331400D03*
X244861200Y-134731400D03*
X243591200Y-138331400D03*
X243591200Y-134731400D03*
X242321200Y-138331400D03*
X242321200Y-134731400D03*
X241051200Y-138331400D03*
X241051200Y-134731400D03*
X239781200Y-138331400D03*
X239781200Y-134731400D03*
X238511200Y-138331400D03*
X238511200Y-134731400D03*
X237241200Y-138331400D03*
X237241200Y-134731400D03*
X235971200Y-138331400D03*
X235971200Y-134731400D03*
X234701200Y-138331400D03*
X234701200Y-134731400D03*
X233431200Y-138331400D03*
X233431200Y-134731400D03*
X232161200Y-138331400D03*
X232161200Y-134731400D03*
X230891200Y-138331400D03*
X230891200Y-134731400D03*
X229621200Y-138331400D03*
X229621200Y-134731400D03*
X228351200Y-138331400D03*
X228351200Y-134731400D03*
X227081200Y-138331400D03*
X227081200Y-134731400D03*
X225811200Y-138331400D03*
X225811200Y-134731400D03*
X224541200Y-138331400D03*
X224541200Y-134731400D03*
X223271200Y-138331400D03*
X223271200Y-134731400D03*
X222001200Y-138331400D03*
X222001200Y-134731400D03*
X220731200Y-138331400D03*
X220731200Y-134731400D03*
X219461200Y-138331400D03*
X219461200Y-134731400D03*
X218191200Y-138331400D03*
X218191200Y-134731400D03*
X267718000Y-91738500D03*
X267718000Y-88138500D03*
X266448000Y-91738500D03*
X266448000Y-88138500D03*
X265178000Y-91738500D03*
X265178000Y-88138500D03*
X263908000Y-91738500D03*
X263908000Y-88138500D03*
X262638000Y-91738500D03*
X262638000Y-88138500D03*
X261368000Y-91738500D03*
X261368000Y-88138500D03*
X260098000Y-91738500D03*
X260098000Y-88138500D03*
X258828000Y-91738500D03*
X258828000Y-88138500D03*
X257558000Y-91738500D03*
X257558000Y-88138500D03*
X256288000Y-91738500D03*
X256288000Y-88138500D03*
X255018000Y-91738500D03*
X255018000Y-88138500D03*
X253748000Y-91738500D03*
X253748000Y-88138500D03*
X252478000Y-91738500D03*
X252478000Y-88138500D03*
X251208000Y-91738500D03*
X251208000Y-88138500D03*
X249938000Y-91738500D03*
X249938000Y-88138500D03*
X248668000Y-91738500D03*
X248668000Y-88138500D03*
X247398000Y-91738500D03*
X247398000Y-88138500D03*
X246128000Y-91738500D03*
X246128000Y-88138500D03*
X244858000Y-91738500D03*
X244858000Y-88138500D03*
X243588000Y-91738500D03*
X243588000Y-88138500D03*
X242318000Y-91738500D03*
X242318000Y-88138500D03*
X241048000Y-91738500D03*
X241048000Y-88138500D03*
X239778000Y-91738500D03*
X239778000Y-88138500D03*
X238508000Y-91738500D03*
X238508000Y-88138500D03*
X237238000Y-91738500D03*
X237238000Y-88138500D03*
X235968000Y-91738500D03*
X235968000Y-88138500D03*
X234698000Y-91738500D03*
X234698000Y-88138500D03*
X233428000Y-91738500D03*
X233428000Y-88138500D03*
X232158000Y-91738500D03*
X232158000Y-88138500D03*
X230888000Y-91738500D03*
X230888000Y-88138500D03*
X229618000Y-91738500D03*
X229618000Y-88138500D03*
X228348000Y-91738500D03*
X228348000Y-88138500D03*
X227078000Y-91738500D03*
X227078000Y-88138500D03*
X225808000Y-91738500D03*
X225808000Y-88138500D03*
X224538000Y-91738500D03*
X224538000Y-88138500D03*
X223268000Y-91738500D03*
X223268000Y-88138500D03*
X221998000Y-91738500D03*
X221998000Y-88138500D03*
X220728000Y-91738500D03*
X220728000Y-88138500D03*
X219458000Y-91738500D03*
X219458000Y-88138500D03*
X218188000Y-91738500D03*
X218188000Y-88138500D03*
%TD*%
D24*
%TO.C,N1*%
X299366200Y-125062300D03*
X299366200Y-123792300D03*
X299366200Y-122522300D03*
X299366200Y-121252300D03*
X299366200Y-119982300D03*
X299366200Y-118712300D03*
X299366200Y-117442300D03*
X294466200Y-117442300D03*
X294466200Y-118712300D03*
X294466200Y-119982300D03*
X294466200Y-121252300D03*
X294466200Y-122522300D03*
X294466200Y-123792300D03*
X294466200Y-125062300D03*
%TD*%
D15*
%TO.C,R24*%
X229762866Y-130124800D03*
X229762866Y-131949800D03*
%TD*%
D14*
%TO.C,R4*%
X302101292Y-144027800D03*
X300276292Y-144027800D03*
%TD*%
D21*
%TO.C,C9*%
X296916200Y-127922300D03*
X296916200Y-129822300D03*
%TD*%
D14*
%TO.C,R9*%
X300601200Y-101209800D03*
X302426200Y-101209800D03*
%TD*%
D10*
%TO.C,C7*%
X291836200Y-126012300D03*
X291836200Y-124112300D03*
%TD*%
D15*
%TO.C,R31*%
X249264534Y-77362300D03*
X249264534Y-79187300D03*
%TD*%
D18*
%TO.C,U2*%
X297116547Y-144279190D03*
D17*
X297116547Y-144929200D03*
X297116547Y-145579190D03*
X297116547Y-146229200D03*
X297116547Y-146879180D03*
X297116547Y-147529200D03*
X297116547Y-148179210D03*
X297116547Y-148829190D03*
X297116547Y-149479200D03*
X297116547Y-150129190D03*
X290516557Y-150129190D03*
X290516557Y-149479200D03*
X290516557Y-148829190D03*
X290516557Y-148179210D03*
X290516557Y-147529200D03*
X290516557Y-146879180D03*
X290516557Y-146229200D03*
X290516537Y-145579190D03*
X290516557Y-144929200D03*
X290516537Y-144279190D03*
%TD*%
D14*
%TO.C,R33*%
X265336200Y-141424800D03*
X267161200Y-141424800D03*
%TD*%
D11*
%TO.C,R28*%
X267161200Y-131799800D03*
X265336200Y-131799800D03*
%TD*%
D16*
%TO.C,R17*%
X289296200Y-122164800D03*
X289296200Y-120339800D03*
%TD*%
D10*
%TO.C,C12*%
X232469534Y-131987300D03*
X232469534Y-130087300D03*
%TD*%
%TO.C,C5*%
X291836200Y-122202300D03*
X291836200Y-120302300D03*
%TD*%
D25*
%TO.C,D1*%
X294376200Y-132682300D03*
X293426200Y-134557300D03*
X295326200Y-134557300D03*
%TD*%
D16*
%TO.C,R13*%
X286756200Y-125974800D03*
X286756200Y-124149800D03*
%TD*%
D14*
%TO.C,R12*%
X302101292Y-152155800D03*
X300276292Y-152155800D03*
%TD*%
D16*
%TO.C,R18*%
X289296200Y-118374800D03*
X289296200Y-116549800D03*
%TD*%
D14*
%TO.C,R27*%
X261936200Y-131799800D03*
X263761200Y-131799800D03*
%TD*%
D13*
%TO.C,C1*%
X297250455Y-93081800D03*
X295350455Y-93081800D03*
%TD*%
D14*
%TO.C,R10*%
X302101292Y-150123800D03*
X300276292Y-150123800D03*
%TD*%
M02*
